<?xml version="1.0" encoding="utf-8"?>
<svg viewBox="165.315 146.6548 132.1281 143.06" xmlns="http://www.w3.org/2000/svg">
  <g transform="matrix(1, 0, 0, 1, 165.31436157226562, 146.65478515625)">
    <path fill-rule="evenodd" clip-rule="evenodd" d="M55.713,0c20.848,13.215,39.682,19.467,55.846,17.989 c2.823,57.098-18.263,90.818-55.63,104.891C19.844,109.708-1.5,77.439,0.083,17.123C19.058,18.116,37.674,14.014,55.713,0L55.713,0 z M45.404,77.353c-0.965,1.093-2.606,1.172-3.667,0.178c-1.06-0.994-1.137-2.687-0.172-3.779l10.837-12.312L41.565,49.128 c-0.965-1.093-0.888-2.785,0.172-3.779c1.061-0.995,2.702-0.915,3.667,0.178l10.502,11.931l10.502-11.931 c0.965-1.093,2.606-1.173,3.667-0.178c1.06,0.995,1.137,2.687,0.172,3.779L59.41,61.439l10.837,12.312 c0.965,1.093,0.888,2.785-0.172,3.779c-1.061,0.994-2.702,0.915-3.667-0.178L55.906,65.421L45.404,77.353L45.404,77.353z" fill="#d80100"/>
  </g>
  <g transform="matrix(1, 0, 0, 1, 185.63255310058594, 166.8347625732422)">
    <path fill-rule="evenodd" clip-rule="evenodd" d="M55.713,0c20.848,13.215,39.682,19.467,55.846,17.989 c2.823,57.098-18.263,90.818-55.63,104.891C19.844,109.708-1.5,77.439,0.083,17.123C19.058,18.116,37.674,14.014,55.713,0L55.713,0 z M33.784,66.775c-1.18-1.01-1.318-2.786-0.309-3.967c1.011-1.181,2.787-1.318,3.967-0.309l11.494,9.875l25.18-27.684 c1.047-1.15,2.828-1.234,3.979-0.188c1.149,1.046,1.233,2.827,0.187,3.978L51.262,78.188l-0.002-0.002 c-1.02,1.121-2.751,1.236-3.91,0.244L33.784,66.775L33.784,66.775z" fill="#15a301"/>
  </g>
</svg>