<?xml version="1.0" encoding="utf-8"?>
<svg viewBox="-5.9745 32.695 511.949 313.1865" xmlns="http://www.w3.org/2000/svg">
  <g transform="matrix(1, 0, 0, 1, 0, 1.4210854715202004e-14)">
    <path d="M 115.589 152.265 C 113.493 155.439 111.118 158.421 108.494 161.175 C 106.057 171.042 100.662 179.928 93.032 186.642 C 83.958 194.647 72.269 199.057 60.168 199.041 C 48.06 199.053 36.364 194.639 27.282 186.629 C 19.647 179.915 14.251 171.022 11.822 161.148 C 9.209 158.401 6.843 155.429 4.752 152.265 C -2.397 141.443 -6.061 128.769 -5.973 115.457 L -5.867 98.392 C -5.768 70.974 16.489 48.793 43.913 48.793 C 49.489 48.793 54.976 49.722 60.171 51.516 C 65.401 49.711 70.896 48.791 76.428 48.793 C 103.853 48.793 126.11 70.973 126.209 98.392 L 126.315 115.457 C 126.402 128.769 122.739 141.443 115.589 152.265 Z M 143.822 180.871 C 107.394 180.871 77.863 151.34 77.863 114.911 C 77.863 78.483 107.393 48.952 143.823 48.952 C 180.25 48.952 209.781 78.483 209.781 114.912 C 209.781 151.34 180.251 180.871 143.822 180.871 Z M 243.677 48.952 C 271.083 48.952 293.299 71.169 293.299 98.574 L 293.299 114.884 C 293.299 151.317 263.691 180.817 227.207 180.817 C 190.724 180.817 161.115 151.317 161.115 114.885 L 161.115 98.575 C 161.115 71.169 183.332 48.952 210.737 48.952 C 216.391 48.952 221.952 49.91 227.207 51.759 C 232.499 49.899 238.068 48.95 243.677 48.952 Z M 293.14 180.764 C 265.732 180.764 243.518 158.546 243.518 131.131 L 243.522 114.489 C 244.2 78.479 272.921 49.641 308.665 48.964 C 309.088 48.956 309.509 48.952 309.931 48.952 L 321.776 48.952 C 349.182 48.952 371.398 71.169 371.398 98.574 C 371.412 110.203 367.328 121.465 359.864 130.383 C 354.777 136.474 348.305 141.259 340.989 144.336 C 335.196 165.411 315.891 180.764 293.139 180.764 L 293.14 180.764 Z M 371.93 32.695 C 399.335 32.695 421.552 54.912 421.552 82.317 L 421.552 131.165 C 421.552 158.591 399.345 180.817 371.93 180.817 C 344.524 180.817 322.307 158.601 322.307 131.195 L 322.307 82.317 C 322.307 54.912 344.524 32.695 371.93 32.695 Z M 445.088 180.977 L 423.358 180.977 C 395.864 180.977 373.577 158.687 373.577 131.192 C 373.577 127.439 373.997 123.717 374.825 120.089 C 373.51 114.323 373.231 108.369 374 102.505 C 377.618 71.902 403.596 48.793 434.462 48.793 L 456.192 48.793 C 483.686 48.793 505.972 71.083 505.972 98.578 C 505.972 102.331 505.552 106.053 504.724 109.68 C 506.041 115.446 506.32 121.401 505.55 127.265 C 501.931 157.868 475.953 180.977 445.088 180.977 Z" fill="#4393BB" fill-rule="nonzero"/>
    <path d="M 112.627 115.548 C 112.697 126.033 109.855 135.947 104.26 144.416 C 101.905 147.98 99.104 151.229 95.926 154.083 C 93.533 171.456 78.708 184.801 60.719 184.803 C 42.721 184.801 27.849 171.423 25.501 154.07 C 22.33 151.219 19.534 147.974 17.182 144.416 C 11.586 135.947 8.746 126.033 8.815 115.548 L 8.921 98.46 C 8.983 78.88 24.876 63.031 44.464 63.031 C 50.119 63.027 55.693 64.374 60.721 66.961 C 65.75 64.374 71.324 63.027 76.978 63.031 C 96.566 63.031 112.458 78.879 112.521 98.461 L 112.627 115.548 L 112.627 115.548 Z M 144.372 166.632 C 115.808 166.632 92.652 143.476 92.652 114.912 C 92.652 86.347 115.808 63.191 144.372 63.191 C 172.937 63.191 196.092 86.347 196.092 114.911 C 196.092 143.476 172.937 166.632 144.372 166.632 Z M 244.227 63.191 C 263.769 63.191 279.611 79.033 279.611 98.574 L 279.611 114.884 C 279.611 143.456 256.375 166.579 227.757 166.579 C 199.14 166.579 175.904 143.456 175.904 114.885 L 175.904 98.575 C 175.904 79.033 191.746 63.191 211.288 63.191 C 217.027 63.186 222.68 64.58 227.758 67.251 C 232.837 64.58 238.49 63.186 244.228 63.191 L 244.227 63.191 Z M 293.69 166.526 C 274.147 166.526 258.306 150.683 258.306 131.135 L 258.311 114.625 C 258.843 86.368 281.427 63.731 309.485 63.2 C 309.817 63.194 310.149 63.19 310.481 63.19 L 322.326 63.19 C 341.868 63.19 357.71 79.033 357.71 98.574 C 357.71 115.832 345.355 130.204 329.007 133.328 C 327.878 151.852 312.497 166.526 293.69 166.526 Z M 372.48 46.933 C 392.021 46.933 407.863 62.775 407.863 82.317 L 407.863 131.165 C 407.863 150.73 392.029 166.579 372.48 166.579 C 352.938 166.579 337.096 150.737 337.096 131.195 L 337.096 82.317 C 337.096 62.775 352.938 46.933 372.48 46.933 L 372.48 46.933 Z M 492.285 120.783 C 492.285 122.363 492.18 123.939 491.971 125.502 C 489.243 148.963 469.337 166.738 445.638 166.738 L 423.908 166.738 C 404.278 166.738 388.365 150.823 388.365 131.192 C 388.365 127.375 388.972 123.636 390.137 120.089 C 388.961 116.506 388.363 112.759 388.365 108.988 C 388.365 107.408 388.47 105.831 388.679 104.268 C 391.407 80.807 411.312 63.031 435.012 63.031 L 456.742 63.031 C 476.372 63.031 492.285 78.947 492.285 98.578 C 492.285 102.394 491.678 106.134 490.513 109.68 C 491.69 113.263 492.288 117.011 492.285 120.782 L 492.285 120.783 Z" fill="#FFF" fill-rule="nonzero"/>
    <path d="M 476.163 109.681 C 478.099 113.06 479.115 116.888 479.109 120.782 C 479.109 121.816 479.038 122.846 478.896 123.864 C 476.996 140.702 462.726 153.562 445.638 153.562 L 423.908 153.562 C 411.554 153.562 401.541 143.545 401.541 131.192 C 401.541 127.152 402.612 123.361 404.486 120.089 C 402.551 116.71 401.535 112.882 401.541 108.988 C 401.541 107.954 401.612 106.924 401.753 105.906 C 403.653 89.067 417.923 76.207 435.012 76.207 L 456.742 76.207 C 469.096 76.207 479.109 86.224 479.109 98.577 C 479.109 102.618 478.038 106.409 476.164 109.681 L 476.163 109.681 Z" fill="#4393BB" fill-rule="nonzero"/>
    <path d="M 448.613 120.782 C 448.614 114.524 455.389 110.614 460.808 113.744 C 463.726 115.429 465.302 118.74 464.769 122.067 C 463.777 131.761 455.59 139.324 445.638 139.324 L 423.908 139.324 C 419.418 139.324 415.778 135.683 415.779 131.192 C 415.778 126.701 419.419 123.06 423.909 123.06 L 446.329 123.06 C 447.587 123.06 448.609 122.04 448.613 120.782 L 448.613 120.782 Z M 432.037 108.988 C 432.032 115.246 425.254 119.151 419.837 116.017 C 416.925 114.332 415.352 111.026 415.88 107.703 C 416.873 98.008 425.06 90.446 435.012 90.446 L 456.742 90.446 C 461.233 90.447 464.872 94.088 464.87 98.578 C 464.872 103.068 461.233 106.709 456.742 106.71 L 434.322 106.71 C 433.063 106.71 432.041 107.729 432.037 108.988 L 432.037 108.988 Z" fill="#FFF" fill-rule="evenodd"/>
    <path d="M 350.272 82.317 C 350.272 70.052 360.215 60.109 372.48 60.109 C 384.745 60.109 394.687 70.052 394.687 82.317 L 394.687 131.165 C 394.687 143.46 384.745 153.403 372.48 153.403 C 360.215 153.403 350.272 143.46 350.272 131.195 L 350.272 82.317 Z" fill="#4393BB" fill-rule="nonzero"/>
    <path d="M 364.351 82.317 C 364.282 76.06 371.012 72.074 376.466 75.142 C 379.053 76.598 380.641 79.349 380.608 82.317 L 380.608 131.195 C 380.654 137.453 373.909 141.413 368.467 138.324 C 365.888 136.86 364.31 134.108 364.351 131.142 L 364.351 82.317 Z" fill="#FFF" fill-rule="evenodd"/>
    <path d="M 315.898 131.143 C 315.898 143.408 305.955 153.35 293.69 153.35 C 281.425 153.35 271.482 143.407 271.482 131.138 L 271.487 114.75 C 271.884 93.671 288.785 76.77 309.734 76.374 C 309.983 76.369 310.232 76.367 310.481 76.367 L 322.326 76.367 C 334.591 76.367 344.534 86.309 344.534 98.574 C 344.534 110.839 334.591 120.782 322.326 120.782 L 315.899 120.782 L 315.898 131.143 L 315.898 131.143 Z" fill="#4393BB" fill-rule="nonzero"/>
    <path d="M 301.819 131.142 L 301.82 114.885 C 301.82 110.366 305.484 106.703 310.003 106.703 L 322.326 106.703 C 328.584 106.773 332.57 100.042 329.501 94.588 C 328.045 92.001 325.295 90.413 322.326 90.446 L 310.481 90.446 C 310.321 90.446 310.161 90.447 310.001 90.45 C 296.618 90.704 285.813 101.477 285.561 114.858 L 285.561 131.142 C 285.561 137.4 292.336 141.311 297.755 138.182 C 300.27 136.73 301.819 134.046 301.819 131.142 L 301.819 131.142 Z" fill="#FFF" fill-rule="evenodd"/>
    <g transform="matrix(1, 0, 0, 1, -5.476521, 32.695164)" fill="none" fill-rule="evenodd">
      <path d="M249.704 43.672c12.265 0 22.208 9.942 22.208 22.207v16.31c0 21.294-17.337 38.52-38.678 38.52-21.34 0-38.677-17.226-38.677-38.52V65.88c0-12.265 9.943-22.207 22.208-22.207 6.532 0 12.406 2.82 16.47 7.31 4.063-4.49 9.937-7.31 16.47-7.31z" fill="#4393BB" fill-rule="nonzero"/>
      <path d="M241.576 82.19h-.006a8.341 8.341 0 01-16.67 0l-.007-16.31a8.129 8.129 0 10-16.257 0v16.31c0 13.497 11.013 24.439 24.598 24.439 13.586 0 24.599-10.942 24.599-24.44V65.88a8.129 8.129 0 00-16.257 0v16.31z" fill="#FFF"/>
    </g>
    <g transform="matrix(1, 0, 0, 1, -5.476521, 32.695164)" fill="none" fill-rule="evenodd">
      <path d="M149.85 120.761c-21.289 0-38.546-17.257-38.546-38.545 0-21.287 17.257-38.544 38.545-38.544s38.545 17.257 38.545 38.544c0 21.288-17.257 38.545-38.545 38.545z" fill="#4393BB" fill-rule="nonzero"/>
      <path d="M149.85 106.523c-13.425 0-24.307-10.883-24.307-24.307s10.882-24.306 24.306-24.306c13.424 0 24.306 10.882 24.306 24.306 0 13.424-10.882 24.307-24.306 24.307zm.026-16.204a8.129 8.129 0 100-16.258 8.129 8.129 0 000 16.258z" fill="#FFF"/>
    </g>
    <g transform="matrix(1, 0, 0, 1, -5.476521, 32.695164)" fill="none" fill-rule="evenodd">
      <path d="M82.455 43.512c12.335 0 22.337 9.985 22.367 22.313l.106 17.113c.053 7.883-2.037 15.242-6.184 21.52-2.704 4.091-6.145 7.533-10.18 10.299v1.686c0 12.473-10.012 22.487-22.367 22.488-12.353 0-22.366-10.014-22.366-22.367v-1.807c-4.035-2.766-7.475-6.208-10.179-10.3-4.148-6.277-6.237-13.636-6.184-21.52l.106-17.112c.03-12.328 10.032-22.313 22.367-22.313 6.404 0 12.18 2.692 16.257 7.005a22.304 22.304 0 0116.257-7.005z" fill="#4393BB" fill-rule="nonzero"/>
      <path d="M58.07 116.564a8.129 8.129 0 0016.256 0v-10.387a29.353 29.353 0 004.202-1.926c3.337-1.887 6.195-4.403 8.336-7.642 2.533-3.834 3.861-8.412 3.826-13.579l-.106-17.15a8.129 8.129 0 10-16.258 0V81.5c.004.537-.01 1.017-.047 1.455a8.129 8.129 0 11-16.162 0 16.127 16.127 0 01-.047-1.456V65.88a8.129 8.129 0 10-16.258 0l-.106 17.151c-.035 5.167 1.293 9.745 3.826 13.579 2.14 3.24 4.999 5.755 8.336 7.642 1.32.746 2.757 1.39 4.202 1.926v10.387z" fill="#FFF"/>
    </g>
    <g transform="matrix(1, 0, 0, 1, -5.476521, 32.695164)" fill="none" fill-rule="evenodd">
      <g>
        <path d="M 153.211 158.852 L 169.254 158.852 C 180.288 158.852 189.233 167.797 189.233 178.831 C 189.233 189.865 180.288 198.809 169.254 198.809 L 153.211 198.809 C 142.177 198.809 133.233 189.865 133.233 178.831 C 133.233 167.797 142.177 158.852 153.211 158.852 L 153.211 158.852 Z M 153.211 171.667 C 147.696 171.667 144.249 177.637 147.007 182.413 C 148.287 184.63 150.652 185.995 153.211 185.995 L 169.254 185.995 C 174.769 185.995 178.216 180.025 175.458 175.249 C 174.179 173.032 171.813 171.667 169.254 171.667 L 153.211 171.667 Z" fill="#026090"/>
        <path d="M 152.37 158.974 C 142.247 158.974 134.041 168.111 134.041 179.382 C 134.041 190.652 142.247 199.789 152.371 199.789 L 169.265 199.789 C 179.388 199.789 187.595 190.652 187.595 179.382 C 187.595 168.111 179.388 158.974 169.265 158.974 L 152.37 158.974 Z M 152.37 155.957 L 169.265 155.957 C 180.885 155.957 190.305 166.445 190.305 179.382 C 190.305 192.318 180.885 202.805 169.265 202.805 L 152.37 202.805 C 140.75 202.805 131.331 192.317 131.331 179.38 C 131.331 166.445 140.751 155.958 152.371 155.958 L 152.37 155.957 Z M 152.37 173.999 C 148.648 173.999 146.322 178.484 148.183 182.073 C 149.046 183.738 150.643 184.764 152.37 184.764 L 169.265 184.764 C 172.987 184.764 175.313 180.279 173.452 176.69 C 172.589 175.025 170.992 173.999 169.265 173.999 L 152.37 173.999 Z M 152.37 170.981 L 169.265 170.981 C 175.073 170.981 178.703 177.981 175.799 183.581 C 174.451 186.18 171.96 187.78 169.265 187.78 L 152.37 187.78 C 146.562 187.78 142.932 180.781 145.836 175.181 C 147.184 172.582 149.675 170.981 152.37 170.981 Z" fill="#FFF" fill-rule="nonzero" style=""/>
        <path d="M 215.388 159.292 L 231.078 159.292 C 241.869 159.292 250.617 168.04 250.617 178.831 C 250.617 189.621 241.869 198.37 231.078 198.37 L 215.388 198.37 C 204.597 198.37 195.848 189.622 195.848 178.83 C 195.848 168.04 204.597 159.292 215.388 159.292 Z M 215.388 171.824 C 209.994 171.824 206.623 177.663 209.32 182.334 C 210.572 184.502 212.885 185.837 215.388 185.837 L 231.078 185.837 C 236.472 185.837 239.843 179.998 237.146 175.327 C 235.894 173.159 233.581 171.824 231.078 171.824 L 215.388 171.824 Z" fill="#026090"/>
        <path d="M 214.785 160.501 C 204.662 160.501 196.456 168.708 196.456 178.831 C 196.456 188.954 204.662 197.161 214.786 197.161 L 231.68 197.161 C 241.803 197.161 250.01 188.954 250.01 178.831 C 250.01 168.708 241.803 160.501 231.68 160.501 L 214.785 160.501 L 214.785 160.501 Z M 214.785 157.791 L 231.68 157.791 C 243.3 157.791 252.72 167.211 252.72 178.831 C 252.72 190.451 243.3 199.87 231.68 199.87 L 214.785 199.87 C 203.165 199.87 193.746 190.45 193.746 178.83 C 193.746 167.211 203.166 157.792 214.786 157.792 L 214.785 157.791 Z M 214.785 173.996 C 211.063 173.996 208.737 178.025 210.598 181.248 C 211.461 182.744 213.058 183.666 214.785 183.666 L 231.68 183.666 C 235.402 183.666 237.728 179.637 235.867 176.413 C 235.004 174.918 233.407 173.996 231.68 173.996 L 214.785 173.996 Z M 214.785 171.286 L 231.68 171.286 C 237.488 171.286 241.118 177.573 238.214 182.603 C 236.866 184.937 234.375 186.375 231.68 186.375 L 214.785 186.375 C 208.977 186.375 205.347 180.088 208.251 175.058 C 209.599 172.724 212.09 171.286 214.785 171.286 Z" fill="#FFF" fill-rule="nonzero"/>
        <path d="M 277.211 158.852 L 293.254 158.852 C 304.288 158.852 313.233 167.797 313.233 178.831 C 313.233 189.865 304.288 198.809 293.254 198.809 L 277.211 198.809 C 266.177 198.809 257.233 189.865 257.233 178.831 C 257.233 167.797 266.177 158.852 277.211 158.852 L 277.211 158.852 Z M 277.211 171.667 C 271.696 171.667 268.249 177.637 271.007 182.413 C 272.287 184.63 274.652 185.995 277.211 185.995 L 293.254 185.995 C 298.769 185.995 302.216 180.025 299.458 175.249 C 298.179 173.032 295.813 171.667 293.254 171.667 L 277.211 171.667 L 277.211 171.667 Z" fill="#026090"/>
        <path d="M 276.785 160.501 C 266.662 160.501 258.456 168.708 258.456 178.831 C 258.456 188.954 266.662 197.161 276.786 197.161 L 293.68 197.161 C 303.803 197.161 312.01 188.954 312.01 178.831 C 312.01 168.708 303.803 160.501 293.68 160.501 L 276.785 160.501 L 276.785 160.501 Z M 276.785 157.791 L 293.68 157.791 C 305.3 157.791 314.72 167.211 314.72 178.831 C 314.72 190.451 305.3 199.87 293.68 199.87 L 276.785 199.87 C 265.165 199.87 255.746 190.45 255.746 178.83 C 255.746 167.211 265.166 157.792 276.786 157.792 L 276.785 157.791 Z M 276.785 173.996 C 273.063 173.996 270.737 178.025 272.598 181.248 C 273.461 182.744 275.058 183.666 276.785 183.666 L 293.68 183.666 C 297.402 183.666 299.728 179.637 297.867 176.413 C 297.004 174.918 295.407 173.996 293.68 173.996 L 276.785 173.996 Z M 276.785 171.286 L 293.68 171.286 C 299.488 171.286 303.118 177.573 300.214 182.603 C 298.866 184.937 296.375 186.375 293.68 186.375 L 276.785 186.375 C 270.977 186.375 267.347 180.088 270.251 175.058 C 271.599 172.724 274.09 171.286 276.785 171.286 Z" fill="#FFF" fill-rule="nonzero"/>
        <path d="M 340.355 159.21 L 356.111 159.21 C 366.948 159.21 375.733 167.994 375.733 178.83 C 375.733 189.667 366.948 198.452 356.111 198.452 L 340.355 198.452 C 329.519 198.452 320.734 189.667 320.734 178.831 C 320.734 167.994 329.519 159.209 340.355 159.209 L 340.355 159.21 Z M 340.355 171.795 C 334.939 171.795 331.554 177.658 334.262 182.349 C 335.519 184.526 337.841 185.867 340.355 185.867 L 356.111 185.867 C 361.527 185.867 364.913 180.004 362.204 175.313 C 360.948 173.136 358.625 171.795 356.111 171.795 L 340.355 171.795 Z" fill="#026090"/>
        <path d="M 339.785 160.501 C 329.662 160.501 321.456 168.708 321.456 178.831 C 321.456 188.954 329.662 197.161 339.786 197.161 L 356.68 197.161 C 366.803 197.161 375.01 188.954 375.01 178.831 C 375.01 168.708 366.803 160.501 356.68 160.501 L 339.785 160.501 L 339.785 160.501 Z M 339.785 157.791 L 356.68 157.791 C 368.3 157.791 377.72 167.211 377.72 178.831 C 377.72 190.451 368.3 199.87 356.68 199.87 L 339.785 199.87 C 328.165 199.87 318.746 190.45 318.746 178.83 C 318.746 167.211 328.166 157.792 339.786 157.792 L 339.785 157.791 Z M 339.785 173.996 C 336.063 173.996 333.737 178.025 335.598 181.248 C 336.461 182.744 338.058 183.666 339.785 183.666 L 356.68 183.666 C 360.402 183.666 362.728 179.637 360.867 176.413 C 360.004 174.918 358.407 173.996 356.68 173.996 L 339.785 173.996 Z M 339.785 171.286 L 356.68 171.286 C 362.488 171.286 366.118 177.573 363.214 182.603 C 361.866 184.937 359.375 186.375 356.68 186.375 L 339.785 186.375 C 333.977 186.375 330.347 180.088 333.251 175.058 C 334.599 172.724 337.09 171.286 339.785 171.286 Z" fill="#FFF" fill-rule="nonzero"/>
        <path d="M 173.24 185.02 L 211.705 185.02 C 216.47 184.959 219.382 179.764 216.947 175.668 C 215.846 173.815 213.86 172.668 211.705 172.641 L 173.24 172.641 C 168.475 172.641 165.497 177.799 167.879 181.926 C 168.985 183.841 171.029 185.021 173.24 185.021 L 173.24 185.02 Z" stroke="#FFF" stroke-width="2.71"/>
        <path d="M 173.24 183.665 L 211.705 183.665 C 215.427 183.719 217.811 179.723 215.996 176.473 C 215.13 174.922 213.482 173.97 211.705 173.996 L 173.24 173.996 C 169.518 173.996 167.192 178.025 169.053 181.248 C 169.916 182.744 171.513 183.666 173.24 183.666 L 173.24 183.665 Z" fill="#026090"/>
        <path d="M 235.241 186.375 C 229.434 186.375 225.804 180.088 228.708 175.059 C 230.055 172.725 232.546 171.287 235.241 171.287 L 273.706 171.287 C 279.513 171.287 283.143 177.574 280.239 182.603 C 278.892 184.937 276.401 186.375 273.706 186.375 L 235.241 186.375 Z" fill="#FFF" fill-rule="nonzero"/>
        <path d="M 235.241 183.665 L 273.706 183.665 C 277.428 183.719 279.812 179.723 277.997 176.473 C 277.131 174.922 275.483 173.97 273.706 173.996 L 235.241 173.996 C 231.519 173.996 229.193 178.025 231.054 181.248 C 231.917 182.744 233.514 183.666 235.241 183.666 L 235.241 183.665 Z" fill="#026090"/>
        <path d="M 235.241 183.665 L 273.706 183.665 C 277.428 183.719 279.812 179.723 277.997 176.473 C 277.131 174.922 275.483 173.97 273.706 173.996 L 235.241 173.996 C 231.519 173.996 229.193 178.025 231.054 181.248 C 231.917 182.744 233.514 183.666 235.241 183.666 L 235.241 183.665 Z"/>
        <path d="M 297.242 186.375 C 291.435 186.375 287.805 180.088 290.709 175.059 C 292.056 172.725 294.547 171.287 297.242 171.287 L 335.707 171.287 C 341.514 171.287 345.144 177.574 342.24 182.603 C 340.893 184.937 338.402 186.375 335.707 186.375 L 297.242 186.375 Z" fill="#FFF" fill-rule="nonzero"/>
        <path d="M 297.242 183.665 L 335.707 183.665 C 339.429 183.611 341.697 179.549 339.79 176.353 C 338.93 174.912 337.385 174.02 335.707 173.996 L 297.242 173.996 C 293.52 173.996 291.194 178.025 293.055 181.248 C 293.918 182.744 295.515 183.666 297.242 183.666 L 297.242 183.665 Z"/>
        <path d="M 297.242 183.665 L 335.707 183.665 C 339.429 183.611 341.697 179.549 339.79 176.353 C 338.93 174.912 337.385 174.02 335.707 173.996 L 297.242 173.996 C 293.52 173.996 291.194 178.025 293.055 181.248 C 293.918 182.744 295.515 183.666 297.242 183.666 L 297.242 183.665 Z" fill="#026090"/>
        <g transform="matrix(0.41928, 0, 0, 0.411889, 319.710663, 257.662323)" style="">
          <path fill-rule="evenodd" clip-rule="evenodd" d="M55.713,0c20.848,13.215,39.682,19.467,55.846,17.989 c2.823,57.098-18.263,90.818-55.63,104.891C19.844,109.708-1.5,77.439,0.083,17.123C19.058,18.116,37.674,14.014,55.713,0L55.713,0 z M33.784,66.775c-1.18-1.01-1.318-2.786-0.309-3.967c1.011-1.181,2.787-1.318,3.967-0.309l11.494,9.875l25.18-27.684 c1.047-1.15,2.828-1.234,3.979-0.188c1.149,1.046,1.233,2.827,0.187,3.978L51.262,78.188l-0.002-0.002 c-1.02,1.121-2.751,1.236-3.91,0.244L33.784,66.775L33.784,66.775z" fill="#15a301"/>
        </g>
        <g transform="matrix(1, 0, 0, 1, 15.040356, 104.548805)">
          <path d="M469.73 166.686h9.736c6.696 0 12.124 5.437 12.124 12.145 0 6.707-5.428 12.144-12.124 12.144h-9.737c-6.696 0-12.124-5.437-12.124-12.144 0-6.708 5.428-12.145 12.124-12.145zm0 7.79a4.351 4.351 0 00-4.348 4.355 4.351 4.351 0 004.347 4.355h9.737a4.351 4.351 0 004.347-4.355 4.351 4.351 0 00-4.347-4.355h-9.737z" fill="#026090"/>
          <path d="M469.529 167.815c-6.074 0-10.998 4.932-10.998 11.016s4.924 11.016 10.998 11.016h10.137c6.074 0 10.998-4.932 10.998-11.016s-4.924-11.016-10.998-11.016h-10.137zm0-1.629h10.137c6.972 0 12.623 5.661 12.623 12.645 0 6.983-5.651 12.644-12.623 12.644h-10.137c-6.972 0-12.623-5.66-12.623-12.644s5.651-12.645 12.623-12.645zm0 9.74c-1.602 0-2.9 1.3-2.9 2.905a2.903 2.903 0 002.9 2.905h10.137c1.602 0 2.9-1.3 2.9-2.905a2.903 2.903 0 00-2.9-2.906h-10.137zm0-1.63h10.137a4.53 4.53 0 014.527 4.535 4.53 4.53 0 01-4.527 4.534h-10.137a4.53 4.53 0 01-4.527-4.534 4.53 4.53 0 014.527-4.534z" fill="#FFF" fill-rule="nonzero"/>
          <path d="M432.574 167.038h9.454c6.502 0 11.773 5.28 11.773 11.793 0 6.513-5.27 11.793-11.773 11.793h-9.454c-6.502 0-11.773-5.28-11.773-11.793 0-6.513 5.271-11.793 11.773-11.793zm0 7.564a4.225 4.225 0 00-4.221 4.229 4.225 4.225 0 004.221 4.228h9.454a4.225 4.225 0 004.222-4.228 4.225 4.225 0 00-4.222-4.229h-9.454z" fill="#026090"/>
          <path d="M432.233 167.815c-6.074 0-10.998 4.932-10.998 11.016s4.924 11.016 10.998 11.016h10.137c6.074 0 10.997-4.932 10.997-11.016s-4.923-11.016-10.997-11.016h-10.137zm0-1.629h10.137c6.971 0 12.623 5.661 12.623 12.645 0 6.983-5.652 12.644-12.623 12.644h-10.137c-6.972 0-12.624-5.66-12.624-12.644s5.652-12.645 12.624-12.645zm0 9.74c-1.602 0-2.901 1.3-2.901 2.905a2.903 2.903 0 002.9 2.905h10.138c1.602 0 2.9-1.3 2.9-2.905a2.903 2.903 0 00-2.9-2.906h-10.137zm0-1.63h10.137a4.53 4.53 0 014.526 4.535 4.53 4.53 0 01-4.526 4.534h-10.137a4.53 4.53 0 01-4.527-4.534 4.53 4.53 0 014.527-4.534z" fill="#FFF" fill-rule="nonzero"/>
          <path d="M444.505 183.365a4.53 4.53 0 01-4.526-4.534 4.53 4.53 0 014.526-4.534h23.08a4.53 4.53 0 014.526 4.534 4.53 4.53 0 01-4.526 4.534h-23.08z" fill="#FFF" fill-rule="nonzero"/>
          <g transform="translate(419.61 166.186)">
            <path d="M24.896 15.55h23.08c1.601 0 2.9-1.3 2.9-2.905a2.903 2.903 0 00-2.9-2.906h-23.08c-1.602 0-2.9 1.3-2.9 2.906a2.903 2.903 0 002.9 2.905z" fill="#026090"/>
            <path stroke="#FFF" stroke-width="1.626" d="M24.896 16.363h23.08a3.716 3.716 0 003.713-3.718 3.716 3.716 0 00-3.714-3.719H24.896a3.716 3.716 0 00-3.714 3.719 3.716 3.716 0 003.714 3.718z"/>
          </g>
        </g>
        <g transform="matrix(0.415999, 0, 0, 0.414874, 139.22644, 257.295532)" style="">
          <path fill-rule="evenodd" clip-rule="evenodd" d="M55.713,0c20.848,13.215,39.682,19.467,55.846,17.989 c2.823,57.098-18.263,90.818-55.63,104.891C19.844,109.708-1.5,77.439,0.083,17.123C19.058,18.116,37.674,14.014,55.713,0L55.713,0 z M45.404,77.353c-0.965,1.093-2.606,1.172-3.667,0.178c-1.06-0.994-1.137-2.687-0.172-3.779l10.837-12.312L41.565,49.128 c-0.965-1.093-0.888-2.785,0.172-3.779c1.061-0.995,2.702-0.915,3.667,0.178l10.502,11.931l10.502-11.931 c0.965-1.093,2.606-1.173,3.667-0.178c1.06,0.995,1.137,2.687,0.172,3.779L59.41,61.439l10.837,12.312 c0.965,1.093,0.888,2.785-0.172,3.779c-1.061,0.994-2.702,0.915-3.667-0.178L55.906,65.421L45.404,77.353L45.404,77.353z" fill="#d80100"/>
        </g>
        <g transform="matrix(1, 0, 0, 1, -24.944971, 330.520935)" fill="none" fill-rule="evenodd">
          <g fill-rule="nonzero" transform="matrix(1, 0, 0, 1, 45.854733, -225.60527)">
            <path d="M381.463 171.818v-12.38c0-2.923 3.486-4.442 5.627-2.45l24.44 22.74a3.347 3.347 0 010 4.9l-24.44 22.74c-2.14 1.991-5.627.473-5.627-2.451v-12.38h-29.167a3.347 3.347 0 01-3.348-3.346v-14.026a3.347 3.347 0 013.348-3.347h29.167z"/>
            <g stroke-linecap="square" stroke-linejoin="round" transform="translate(348.948 156.039)">
              <path d="M35.515 15.726H3v14.026h32.515v15.726L59.954 22.74 35.514 0z" fill="#4393BB" fill-rule="evenodd"/>
              <path stroke="#FFF" stroke-width="1.806" d="M34.611 14.823H2.097v15.832H34.61v16.897l1.519-1.413L60.57 23.4l.71-.661-.71-.661L36.13-.662 34.61-2.073v16.897z"/>
            </g>
          </g>
        </g>
      </g>
    </g>
    <g transform="matrix(1, 0, 0, -1, 187.291901, 339.9487)" style="">
      <path fill-rule="evenodd" clip-rule="evenodd" stroke="#000000" stroke-width="0.5" stroke-miterlimit="2.6131" d="M23.838,48.211 L0.352,24.841L23.838,0.77v15.174c15.025-0.074,26.659,4.704,34.892,14.394c1.013,1.192,1.965,2.455,2.855,3.786 c0.995-1.561,2.069-3.023,3.223-4.381c8.24-9.698,19.891-14.477,34.936-14.393V0.175l23.486,24.071l-23.486,23.37v-13.3 c-9.197-0.059-16.012,2.497-20.432,7.699c-4.93,5.8-7.615,15.109-8.055,27.966v40.409H52.281v-40.4 c-0.438-12.86-3.125-21.578-8.054-27.379c-4.414-5.194-11.213-7.75-20.389-7.699V48.211L23.838,48.211z" style="fill: rgb(67, 146, 186);"/>
    </g>
  </g>
</svg>